<svg width="328" height="328" viewBox="0 0 328 328" fill="none" xmlns="http://www.w3.org/2000/svg">
<path d="M249.535 96.2343C247.001 79.8999 251.396 69.0431 251.774 58.4323C251.815 57.2679 251.815 56.1117 251.741 54.9473H102.124C100.967 56.0953 99.8522 57.2597 98.778 58.4323C79.4752 79.4817 72.497 103.704 70.1272 113.479C73.1776 140.424 71.103 161.67 68.4708 176.488C64.871 196.766 59.6476 208.254 65.486 223.58C65.9124 224.695 67.6098 228.984 70.9472 234.027H279.358C283.86 223.064 286.205 211.707 286.673 201.694C287.747 178.767 279.153 159.456 269.764 138.358C258.071 112.077 252.069 112.569 249.535 96.2343Z" fill="white" stroke="#1A1A1A" stroke-width="2" stroke-miterlimit="10" stroke-linecap="round" stroke-linejoin="round"/>
<path d="M47.2485 158.416C26.1991 186.181 56.2111 260.006 93.0127 266.853C108.921 269.813 116.883 258.546 135.292 263.868C155.94 269.838 157.842 287.443 173.594 296.701C203.778 314.446 274.323 295.348 293.478 242.483C308.722 200.417 285.721 152.709 264.631 140.015C262.802 138.917 259.333 137.08 256.176 133.054C243.762 117.219 254.938 88.3719 259.161 77.3429C267.222 56.2525 274.454 52.3575 271.584 45.0021C267.099 33.4893 244.122 29.4713 227.312 31.5705C208.649 33.8993 203.86 42.9931 186.526 42.0173C175.521 41.4023 172.2 37.4417 160.663 33.5631C157.473 32.4889 114.735 18.6555 93.5129 38.0403C76.1125 53.9237 75.9567 89.5855 87.0431 111.66C91.0119 119.565 95.0709 123.033 94.0049 129.068C91.2497 144.755 60.4095 141.049 47.2485 158.416Z" stroke="#1A1A1A" stroke-width="3" stroke-miterlimit="10" stroke-linecap="round" stroke-linejoin="round"/>
<path d="M286.673 201.695C285.583 225.024 274.324 255.651 249.199 271.666C245.616 273.945 223.878 277.307 180.557 283.933C157.245 287.5 145.404 289.14 136.449 282.277C126.765 274.847 128.955 265.098 117.212 257.734C107.052 251.371 101.763 256.389 89.6848 250.772C73.1864 243.097 66.3968 225.992 65.4784 223.581C59.6482 208.255 64.8634 196.775 68.4632 176.488C71.0954 161.671 73.17 140.425 70.1196 113.48C72.4894 103.705 79.4594 79.4824 98.7704 58.433C100.517 56.5224 102.37 54.6364 104.33 52.7914C107.643 49.6754 111.267 46.666 115.22 43.837C127.544 35.022 144.338 23.0008 164.633 25.264C178.671 26.8302 183.649 34.038 198.786 32.2258C213.111 30.512 217.703 22.9844 228.298 25.264C240.106 27.7978 246.731 39.7944 247.863 41.8444C249.987 45.6902 251.077 49.2736 251.528 52.7914C251.774 54.6856 251.832 56.5552 251.758 58.433C251.372 69.0438 246.985 79.9088 249.519 96.235C252.053 112.569 258.055 112.077 269.749 138.35C279.154 159.457 287.748 178.768 286.673 201.695Z" fill="white" stroke="#1A1A1A" stroke-width="2" stroke-miterlimit="10" stroke-linecap="round" stroke-linejoin="round"/>
<path d="M251.773 58.4326H98.7773C100.524 56.522 102.377 54.636 104.337 52.791H251.543C251.789 54.6852 251.847 56.5548 251.773 58.4326Z" fill="#1A1A1A" stroke="#1A1A1A" stroke-width="2" stroke-miterlimit="10" stroke-linecap="round" stroke-linejoin="round"/>
<path d="M111.774 58.4336H109.781V206.878H111.774V58.4336Z" fill="#1A1A1A" stroke="#1A1A1A" stroke-width="2" stroke-miterlimit="10" stroke-linecap="round" stroke-linejoin="round"/>
<path d="M178.301 58.4336H176.309V206.878H178.301V58.4336Z" fill="#1A1A1A" stroke="#1A1A1A" stroke-width="2" stroke-miterlimit="10" stroke-linecap="round" stroke-linejoin="round"/>
<path d="M148.82 131.938L152.699 150.781C152.699 150.781 154.585 151.913 160.251 153.569C159.554 144.516 157.357 135.299 148.82 131.938Z" fill="#1A1A1A"/>
<path d="M162.645 134.374C160.784 127.503 158.02 117.089 151.674 116.465C145.335 115.842 145.023 118.122 145.023 118.122L148.049 128.232L148.812 131.939C157.348 135.301 159.546 144.518 160.243 153.57C162.334 154.185 164.933 154.866 168.156 155.596C168.41 151.373 164.515 141.246 162.645 134.374Z" fill="#1A1A1A" stroke="#1A1A1A" stroke-width="2" stroke-miterlimit="10" stroke-linecap="round" stroke-linejoin="round"/>
<path d="M118.324 202.245C118.324 202.245 121.194 165.328 130.263 156.153C139.324 146.977 147.951 148.855 147.951 148.855C147.951 148.855 164.753 144.763 174.921 160.679C185.089 177.924 186.524 202.245 186.524 202.245L176.577 205.558L118.324 202.245Z" fill="white" stroke="#1A1A1A" stroke-width="2" stroke-miterlimit="10" stroke-linecap="round" stroke-linejoin="round"/>
<path d="M153.323 182.049C153.323 182.049 150.789 179.31 153.323 176.161C155.857 173.012 155.881 168.207 152.823 165.477C149.764 162.738 150.494 161.245 152.593 158.006C154.692 154.776 149.633 153.447 149.633 153.447C149.633 153.447 152.536 155.104 151.125 158.507C149.715 161.91 148.501 165.14 151.765 167.871C155.028 170.61 152.429 174.39 150.699 176.932C148.969 179.474 151.207 182.131 153.159 182.459" fill="#1A1A1A"/>
<path d="M143.321 143.934C143.149 146.402 143.026 149.723 143.542 150.084C143.542 150.084 149.43 153.733 153.653 148.592C153.12 146.173 152.71 144.426 152.415 143.18C149.782 144.746 146.166 145 143.321 143.934Z" fill="white" stroke="#1A1A1A" stroke-width="2" stroke-miterlimit="10" stroke-linecap="round" stroke-linejoin="round"/>
<path d="M143.542 141.252C143.542 141.252 143.427 142.433 143.32 143.926C146.166 144.992 149.782 144.746 152.414 143.171C151.881 140.965 151.676 140.334 151.676 140.334L143.542 141.252Z" fill="#1A1A1A" stroke="#1A1A1A" stroke-width="2" stroke-miterlimit="10" stroke-linecap="round" stroke-linejoin="round"/>
<path d="M132.472 204.786C132.423 204.467 132.415 203.86 132.406 203.048C132.398 197.324 133.243 181.244 133.243 181.244C133.243 181.244 135.793 196.693 141.754 197.374C147.724 198.046 160.213 210.813 174.915 201.506C166.404 211.314 166.404 211.314 166.404 211.314C166.404 211.314 133.358 210.977 132.472 204.786Z" fill="#1A1A1A"/>
<path d="M175.471 206.779C174.922 182.457 167.73 169.305 167.73 169.305C167.73 169.305 170.1 179.686 170.289 181.793C170.6 187.427 172.281 201.08 170.855 206.18C169.42 211.28 175.471 206.779 175.471 206.779Z" fill="#1A1A1A"/>
<path d="M143.384 145.837C142.933 143.984 143.613 144.599 143.171 142.746C143.13 142.574 140.407 139.704 140.235 139.236C139.177 137.531 138.661 136.03 138.661 136.03C138.661 136.03 138.136 134.513 137.783 132.397C137.652 131.635 137.554 130.798 137.504 129.921C138.874 127.961 141.662 125.14 142.892 123.263C143.736 121.967 144.893 120.229 144.237 118.63C143.72 117.359 142.523 116.957 141.252 116.973C139.661 116.99 138.029 117.498 136.824 118.564C134.2 120.909 133.216 124.985 132.888 128.355C132.617 131.151 133.052 133.914 133.249 136.702C133.257 136.793 133.257 136.875 133.265 136.965C133.388 139.039 133.355 141.278 132.88 143.303C132.543 144.73 132.158 146.116 131.871 147.535C131.773 149.404 131.928 151.266 132.552 153.029C133.716 156.751 134.413 160.933 137.668 163.492C138.948 164.517 141.293 164.837 143.097 164.213C143.425 162.303 143.408 160.286 143.408 158.539C143.433 154.259 144.384 149.978 143.384 145.837Z" fill="#1A1A1A" stroke="#1A1A1A" stroke-width="2" stroke-miterlimit="10" stroke-linecap="round" stroke-linejoin="round"/>
<path d="M137.679 163.5C134.424 160.942 133.727 156.752 132.563 153.037C131.939 151.274 131.784 149.413 131.882 147.543C131.759 148.142 131.652 148.748 131.57 149.363C131.029 153.472 131.169 157.719 132.235 161.737C132.981 164.542 134.35 167.239 136.499 169.199C137.261 169.888 138.294 170.511 139.254 170.167C139.746 169.995 140.197 169.716 140.59 169.363C142.058 168.059 142.763 166.198 143.1 164.23C141.304 164.837 138.967 164.525 137.679 163.5Z" fill="#1A1A1A"/>
<path d="M112.153 116.924C105.937 131.717 98.8854 144.009 98.8854 144.009L94.646 142.025C94.646 142.025 93.0142 120.565 96.7288 111.652C105.519 90.6024 118.369 102.132 112.153 116.924Z" fill="#1A1A1A" stroke="#1A1A1A" stroke-width="2" stroke-miterlimit="10" stroke-linecap="round" stroke-linejoin="round"/>
<path d="M86.4688 153.807C81.147 153.725 81.0568 153.438 81.0568 153.438C81.0568 153.438 71.4136 178.784 84.0416 209.312H92.75C90.167 206.434 88.4368 202.925 87.4774 199.079C84.1646 183.868 82.1146 168.452 86.4688 153.807Z" fill="white" stroke="#1A1A1A" stroke-width="2" stroke-miterlimit="10" stroke-linecap="round" stroke-linejoin="round"/>
<path d="M90.553 153.831C88.9294 153.839 87.5846 153.831 86.4694 153.807C82.1152 168.444 84.1652 183.868 87.4698 199.079C88.4292 202.925 90.1676 206.434 92.7424 209.312H97.2442C93.6034 201.736 90.8072 193.954 89.7904 185.819C88.4948 175.184 87.806 164.139 90.553 153.831Z" fill="white" stroke="#1A1A1A" stroke-width="2" stroke-miterlimit="10" stroke-linecap="round" stroke-linejoin="round"/>
<path d="M97.4734 190.707C95.612 184.893 93.2832 179.309 93.0536 173.495C92.619 167.025 91.7908 160.146 93.9064 153.799C92.6764 153.815 91.5612 153.823 90.5526 153.823C87.8056 164.139 88.4944 175.184 89.7982 185.82C90.815 193.954 93.6112 201.736 97.252 209.313H107.674C107.674 209.313 107.871 208.968 108.207 208.296C101.418 206.795 99.712 196.611 97.4734 190.707Z" fill="white" stroke="#1A1A1A" stroke-width="2" stroke-miterlimit="10" stroke-linecap="round" stroke-linejoin="round"/>
<path d="M114.325 179.768C114.276 184.401 113.833 188.575 113.194 192.216C110.561 192.29 108.175 191.109 106.47 189.37C106.166 189.059 105.879 188.723 105.617 188.378C105.207 187.821 104.813 187.247 104.436 186.681C97.9333 176.849 95.5553 165.246 96.3917 153.881C96.3999 153.84 96.3999 153.807 96.3999 153.766C97.7857 153.741 99.2945 153.709 100.943 153.676C100.73 163.171 100.82 176.39 110.963 179.776C112.185 180.186 113.325 180.137 114.325 179.768Z" fill="white" stroke="#1A1A1A" stroke-width="2" stroke-miterlimit="10" stroke-linecap="round" stroke-linejoin="round"/>
<path d="M113.184 192.224C111.733 200.538 109.273 206.139 108.199 208.304C101.417 206.795 99.7118 196.611 97.4732 190.707C95.6118 184.893 93.283 179.309 93.0534 173.495C92.6188 167.025 91.7906 160.145 93.9062 153.798C94.677 153.79 95.4888 153.782 96.358 153.766H96.4072C96.4072 153.807 96.399 153.839 96.399 153.88C96.317 154.914 96.1776 156.168 96.1612 157.169C95.9316 167.517 98.4982 177.742 104.443 186.68C104.829 187.254 105.214 187.82 105.624 188.378C105.886 188.722 106.165 189.058 106.477 189.37C108.166 191.117 110.56 192.289 113.184 192.224Z" fill="white" stroke="#1A1A1A" stroke-width="2" stroke-miterlimit="10" stroke-linecap="round" stroke-linejoin="round"/>
<path d="M105.615 164.894C104.279 161.45 104.041 157.375 105.033 153.578C103.582 153.619 102.221 153.652 100.941 153.677C100.728 163.172 100.818 176.391 110.962 179.777C112.184 180.187 113.323 180.138 114.316 179.769C114.348 177.071 114.242 174.209 113.963 171.208C109.814 173.332 106.96 168.248 105.615 164.894Z" fill="white" stroke="#1A1A1A" stroke-width="2" stroke-miterlimit="10" stroke-linecap="round" stroke-linejoin="round"/>
<path d="M107.009 160.236C107.009 163.262 110.732 167.444 113.053 165.124C113.094 165.091 113.126 165.05 113.167 165.009C112.561 161.327 111.691 157.457 110.494 153.414C109.461 153.447 108.469 153.48 107.509 153.504C106.411 155.644 106.804 157.94 107.009 160.236Z" fill="white" stroke="#1A1A1A" stroke-width="2" stroke-miterlimit="10" stroke-linecap="round" stroke-linejoin="round"/>
<path d="M113.061 165.123C110.732 167.452 107.018 163.262 107.018 160.236C106.813 157.94 106.419 155.636 107.518 153.504C106.665 153.529 105.837 153.553 105.041 153.57C104.049 157.366 104.279 161.442 105.624 164.886C106.968 168.248 109.822 173.331 113.979 171.208C113.799 169.207 113.537 167.132 113.184 165.009C113.135 165.05 113.094 165.091 113.061 165.123Z" fill="white" stroke="#1A1A1A" stroke-width="2" stroke-miterlimit="10" stroke-linecap="round" stroke-linejoin="round"/>
<path d="M95.8264 155.971C103.933 155.971 110.504 154.83 110.504 153.421C110.504 152.013 103.933 150.871 95.8264 150.871C87.72 150.871 81.1484 152.013 81.1484 153.421C81.1484 154.83 87.72 155.971 95.8264 155.971Z" fill="#102140"/>
<path d="M83.9021 153.422C83.9021 153.422 60.5813 134.743 64.4435 123.131C68.3139 111.528 84.6729 133.078 91.5281 152.143C87.6659 154.824 84.7139 154.562 83.9021 153.422Z" fill="#1A1A1A" stroke="#1A1A1A" stroke-width="2" stroke-miterlimit="10" stroke-linecap="round" stroke-linejoin="round"/>
<path d="M84.6801 141.835C83.2451 135.857 82.0561 129.846 81.2115 123.655C80.5309 118.678 79.9897 113.643 80.0471 108.617C80.0799 105.656 80.0061 101.081 82.2939 98.793C82.5727 98.5142 82.8761 98.2764 83.2369 98.1124C91.0843 94.5782 99.7107 138.342 95.6189 152.88C91.7239 156.095 88.8376 154.807 87.8126 153.758C86.6892 149.772 85.6313 145.812 84.6801 141.835Z" fill="#5067EF" stroke="#1A1A1A" stroke-width="2" stroke-miterlimit="10" stroke-linecap="round" stroke-linejoin="round"/>
<path d="M100.433 154.661C100.433 154.661 109.551 136.646 103.524 132.004C97.4973 127.363 93.0774 141.951 93.5776 153.89C97.3332 156.375 100.433 154.661 100.433 154.661Z" fill="#8E9DF4" stroke="#1A1A1A" stroke-width="2" stroke-miterlimit="10" stroke-linecap="round" stroke-linejoin="round"/>
<path d="M106.011 154.93C106.011 154.93 115.351 152.331 114.801 145.311C114.252 138.292 105.74 143.048 103.469 154.545C104.74 154.881 106.011 154.93 106.011 154.93Z" fill="#1A1A1A" stroke="#1A1A1A" stroke-width="2" stroke-miterlimit="10" stroke-linecap="round" stroke-linejoin="round"/>
<path d="M107.372 126.552C113.923 125.969 113.735 136.006 109.11 145.871C104.485 155.735 104.19 154.604 104.19 154.604L101.123 155.243C101.123 155.235 100.82 127.126 107.372 126.552Z" fill="#5067EF" stroke="#1A1A1A" stroke-width="2" stroke-miterlimit="10" stroke-linecap="round" stroke-linejoin="round"/>
<path d="M161.152 241.278L136.438 282.269L136.446 282.278C144.031 288.1 153.69 287.804 170.631 285.41C172.714 272.692 177.15 249.248 183.883 231.807C171.493 236.956 161.152 241.278 161.152 241.278Z" fill="white" stroke="#1A1A1A" stroke-width="2" stroke-miterlimit="10" stroke-linecap="round" stroke-linejoin="round"/>
<path d="M216.3 234.907C222.113 236.998 228.395 236.301 234.676 235.375C237.931 234.907 240.49 233.046 243.745 231.652C250.289 228.692 252.617 221.713 251.773 214.883C242.244 214.883 226.443 214.883 225.574 214.883C224.836 214.883 202.13 224.247 183.885 231.816C182.999 234.104 182.163 236.49 181.359 238.95C184.336 236.072 187.969 234.136 192.339 233.981C200.014 233.972 209.084 232.111 216.3 234.907Z" fill="#1A1A1A" stroke="#1A1A1A" stroke-width="2" stroke-miterlimit="10" stroke-linecap="round" stroke-linejoin="round"/>
<path d="M268.27 230.871C265.949 221.417 258.905 214.873 258.905 214.873C258.905 214.873 255.937 214.873 251.78 214.873C252.624 221.704 250.295 228.69 243.752 231.642C240.496 233.036 237.938 234.897 234.683 235.365C228.401 236.291 222.12 236.997 216.306 234.897C209.099 232.109 200.021 233.971 192.346 233.971C187.975 234.127 184.343 236.062 181.366 238.94C176.044 255.209 172.453 274.356 170.641 285.409C173.699 284.975 176.996 284.475 180.563 283.933C187.541 282.867 193.961 281.883 199.833 280.973L202.694 277.3C210.066 271.658 211.567 261.129 211.567 261.129C211.567 261.129 218.865 264.86 232.387 265.106C269.032 266.853 270.59 240.326 268.27 230.871Z" fill="#1A1A1A" stroke="#1A1A1A" stroke-width="2" stroke-miterlimit="10" stroke-linecap="round" stroke-linejoin="round"/>
<path d="M211.559 261.138C213.994 256.275 214.576 254.668 213.305 249.117C213.305 249.117 241.817 265.533 258.569 250.855C275.314 236.177 258.569 217.03 258.569 217.03L260.053 216.062C260.053 216.062 277.364 232.602 264.982 252.134C252.6 271.667 218.356 266.361 211.559 261.138Z" fill="#1A1A1A" stroke="#1A1A1A" stroke-width="2" stroke-miterlimit="10" stroke-linecap="round" stroke-linejoin="round"/>
<path d="M200.621 188.593C199.473 185.207 198.456 181.992 197.645 179.139L200.621 188.593Z" fill="#14B7DD"/>
<path d="M200.621 188.593C199.473 185.207 198.456 181.992 197.645 179.139" stroke="#1A1A1A" stroke-width="2" stroke-miterlimit="10" stroke-linecap="round" stroke-linejoin="round"/>
<path d="M247.876 155.933C245.998 150.955 243.342 147.183 240.398 144.338C231.394 135.613 219.742 135.482 219.742 135.482C215.445 134.957 202.169 140.902 197.914 144.879C197.495 145.264 197.118 145.724 196.774 146.24L196.766 146.248C193.592 151.021 193.453 161.082 196.142 173.349C196.503 175.006 197.012 176.974 197.643 179.147L200.62 188.601C200.931 189.536 201.259 190.479 201.595 191.43C202.235 193.259 202.907 195.12 203.604 196.982C204.613 199.688 205.671 202.402 206.737 205.026C218.906 205.362 231.296 205.936 242.349 198.63C248.163 194.678 250.722 188.864 251.886 182.345C252.386 179.786 252.829 177.285 253.247 174.801C252.353 169.832 250.812 163.739 247.876 155.933Z" fill="#5067EF" stroke="#1A1A1A" stroke-width="2" stroke-miterlimit="10" stroke-linecap="round" stroke-linejoin="round"/>
<path d="M255.664 192.078C254.442 187.699 254.656 182.697 253.237 174.801C252.827 177.277 252.376 179.786 251.876 182.345C250.711 188.856 248.153 194.669 242.339 198.63C231.286 205.936 218.895 205.362 206.727 205.026C210.827 215.071 215.148 223.837 218.026 226.248C224.16 231.389 254.172 223.263 258.649 218.786C263.126 214.292 257.657 199.204 255.664 192.078Z" fill="#5067EF" stroke="#1A1A1A" stroke-width="2" stroke-miterlimit="10" stroke-linecap="round" stroke-linejoin="round"/>
<path d="M234.272 212.775L134.191 280.311C134.864 280.983 135.61 281.639 136.446 282.279C137.447 283.049 138.48 283.705 139.562 284.271H140.505L233.83 221.098L234.272 212.775Z" fill="#1A1A1A" stroke="#1A1A1A" stroke-width="2" stroke-miterlimit="10" stroke-linecap="round" stroke-linejoin="round"/>
<mask id="mask0_203_2306" style="mask-type:luminance" maskUnits="userSpaceOnUse" x="134" y="212" width="101" height="73">
<path d="M234.272 212.775L134.191 280.311C134.864 280.983 135.61 281.639 136.446 282.279C137.447 283.049 138.48 283.705 139.562 284.271H140.505L233.83 221.098L234.272 212.775Z" fill="white"/>
</mask>
<g mask="url(#mask0_203_2306)">
<path d="M181.306 248.659C181.774 247.7 182.996 247.191 184.004 247.528C184.291 248.266 184.226 249.094 183.988 249.848C183.75 250.603 183.348 251.283 182.963 251.972C181.807 254.03 180.741 256.146 179.781 258.311" stroke="white" stroke-width="2" stroke-miterlimit="10" stroke-linecap="round" stroke-linejoin="round"/>
<path d="M183.579 255.39C183.924 254.759 184.276 254.136 184.621 253.504C184.965 252.889 185.301 252.266 185.728 251.7C186.769 250.323 188.245 249.347 189.467 248.117C190.525 247.051 191.386 245.796 192.001 244.419C192.132 244.132 192.23 243.755 192.001 243.541C191.911 243.451 191.779 243.418 191.648 243.386C188.68 242.631 185.408 243.14 182.809 244.771M191.115 250.962C191.378 249.232 192.411 247.732 193.411 246.297C195.445 243.377 197.487 240.466 199.725 237.695C200.767 236.407 201.865 235.136 203.259 234.234C203.587 234.021 203.948 233.824 204.342 233.841C205.022 233.874 205.523 234.571 205.547 235.251C205.58 235.932 205.26 236.571 204.916 237.162C203.989 238.728 202.784 240.13 201.382 241.286C200.758 241.795 200.078 242.27 199.291 242.451C199.135 242.484 198.963 242.5 198.84 242.41C198.708 242.303 198.692 242.106 198.717 241.942C198.79 241.327 199.135 240.778 199.487 240.27C200.693 238.498 202.161 236.686 204.235 236.178C204.416 236.506 204.137 236.891 203.874 237.162C203.194 237.867 202.513 238.564 201.833 239.269" stroke="white" stroke-width="2" stroke-miterlimit="10" stroke-linecap="round" stroke-linejoin="round"/>
<path d="M202.816 242.967C204.841 240.475 206.629 237.777 208.129 234.931C208.572 234.095 208.999 233.234 209.228 232.316C209.359 231.791 209.433 231.258 209.499 230.725C209.515 230.602 209.532 230.471 209.491 230.348C209.417 230.118 209.179 229.979 208.958 229.897C207.982 229.528 206.842 229.61 205.932 230.126M208.662 239.31C209.327 238.753 209.974 238.146 210.401 237.391C211.016 236.317 211.147 235.046 211.508 233.865C211.787 232.963 212.197 232.111 212.648 231.282C213.189 230.298 213.787 229.339 214.493 228.47C215.173 227.625 215.96 226.863 216.813 226.198C217.822 225.419 218.945 224.763 219.757 223.779C220.569 222.804 221.003 221.36 220.388 220.245M213.664 236.227C213.771 234.956 214.337 233.767 214.894 232.619C215.296 231.783 215.706 230.938 216.297 230.216C217.412 228.855 219.076 228.076 220.429 226.945C221.955 225.674 223.062 223.976 224.144 222.312C224.751 221.377 225.358 220.434 225.768 219.401C226.178 218.367 226.366 217.211 226.096 216.129M219.486 232.299C219.076 231.282 219.757 230.184 220.405 229.298C220.979 228.519 221.553 227.74 222.217 227.043C223.127 226.1 224.201 225.321 225.095 224.362C226.497 222.861 227.391 220.975 228.228 219.097C228.572 218.318 228.933 217.506 229.605 216.982C230.278 216.457 231.36 216.358 231.918 216.998C232.114 217.219 232.221 217.506 232.287 217.793C232.483 218.663 232.287 219.573 231.918 220.385C231.549 221.188 231.007 221.902 230.466 222.607C230.105 223.082 229.63 223.607 229.031 223.542C228.916 222.295 228.818 220.959 229.417 219.868C229.671 219.409 230.212 218.974 230.679 219.22C231.016 219.392 231.114 219.852 230.999 220.212C230.884 220.573 230.614 220.86 230.343 221.131M231.237 214.85C231.672 214.809 232.114 214.874 232.516 215.055C232.672 215.128 232.828 215.219 232.934 215.35C233.016 215.448 233.066 215.563 233.115 215.678C233.451 216.432 233.754 217.211 234.017 217.99C234.148 218.384 234.271 218.786 234.525 219.122M138.536 274.431C137.782 276.464 137.273 278.588 137.027 280.737C136.953 281.393 136.937 282.147 137.421 282.598C137.642 282.803 137.946 282.91 138.249 282.934C139.11 283.016 139.914 282.5 140.578 281.934C141.242 281.376 141.873 280.728 142.702 280.466C143.21 280.302 143.751 280.302 144.284 280.318C144.776 280.335 145.326 280.409 145.613 280.802C145.777 281.015 145.826 281.294 145.867 281.565C145.949 282.032 146.031 282.491 146.105 282.959C146.187 283.426 146.219 284.017 145.809 284.263M143.226 272.733C142.48 274.111 142.144 275.71 142.267 277.276C144.727 276.94 146.474 274.759 148.704 273.668C149.729 273.16 150.869 272.889 152.017 272.881C152.017 273.463 151.804 274.045 151.426 274.496C150.885 275.144 150.065 275.48 149.458 276.063C149.073 276.423 148.778 276.874 148.491 277.317C148.237 277.703 147.974 278.137 148.056 278.588C148.146 279.072 148.622 279.408 149.106 279.482C149.59 279.556 150.082 279.408 150.541 279.236C151.32 278.941 152.066 278.555 152.755 278.088M148.384 270.068C149.54 270.036 150.615 269.322 151.771 269.339C152.419 269.347 153.042 269.585 153.673 269.732C155.838 270.224 158.077 269.609 160.209 268.994C162.529 268.33 164.85 267.666 167.17 266.993C168.499 266.616 170.008 266.067 170.459 264.763M177.937 249.257C178.322 249.068 178.65 249.609 178.724 250.036C178.929 251.299 178.847 252.611 178.486 253.832C178.24 254.669 177.871 255.464 177.502 256.251C176.609 258.162 175.715 260.073 174.821 261.983C174.173 263.377 173.509 264.779 172.599 266.009" stroke="white" stroke-width="2" stroke-miterlimit="10" stroke-linecap="round" stroke-linejoin="round"/>
<path d="M153.691 266.469C157.037 267.15 160.637 266.518 163.548 264.739C164.868 263.935 166.082 262.894 167.558 262.467C168.197 262.287 168.861 262.221 169.517 262.098C171.904 261.647 174.216 260.253 175.257 258.064C175.725 257.08 175.922 255.998 176.077 254.923C176.209 254.071 176.315 253.21 176.405 252.349C176.463 251.775 176.471 251.094 175.995 250.758" stroke="white" stroke-width="2" stroke-miterlimit="10" stroke-linecap="round" stroke-linejoin="round"/>
<path d="M174.869 251.684C174.631 253.045 174.393 254.422 173.811 255.669C173.065 257.243 171.819 258.514 170.539 259.695C169.695 260.474 168.801 261.253 167.71 261.606C166.964 261.852 166.177 261.884 165.39 261.876C162.831 261.86 160.002 261.54 157.969 263.09" stroke="white" stroke-width="2" stroke-miterlimit="10" stroke-linecap="round" stroke-linejoin="round"/>
<path d="M161.988 259.843C163.989 259.983 166.137 260.081 167.851 259.048C169.016 258.351 169.836 257.203 170.623 256.096C171.262 255.194 171.927 254.185 171.787 253.095C171.656 252.078 170.861 251.291 170.114 250.594" stroke="white" stroke-width="2" stroke-miterlimit="10" stroke-linecap="round" stroke-linejoin="round"/>
</g>
<path d="M63.909 202.246C63.909 202.246 63.6712 202.689 63.2366 203.484C62.4494 210.2 62.7774 216.481 65.4834 223.591C66.4018 226.001 73.1914 243.107 89.6898 250.782C101.768 256.399 107.057 251.381 117.217 257.744C127.943 264.468 127.041 273.192 134.199 280.31L234.272 212.775L63.909 202.246Z" fill="white" stroke="#1A1A1A" stroke-width="2" stroke-miterlimit="10" stroke-linecap="round" stroke-linejoin="round"/>
<path d="M88.8383 224.205C91.6263 223.279 97.9075 223.976 96.9809 220.483C96.7513 219.089 93.9551 219.089 92.0937 218.851C87.9035 217.924 84.1889 218.851 79.9987 218.154C74.3489 217.235 68.8467 216.096 63.3281 215.522C63.7381 218.129 64.4269 220.786 65.4847 223.574C65.6159 223.927 65.8783 224.599 66.2801 225.509C71.1591 225.476 76.0463 224.952 80.9253 224.427C83.4837 224.205 86.2799 224.902 88.8383 224.205ZM107.674 212.34C110.003 219.089 108.141 229.084 115.349 232.807C133.955 242.811 155.586 236.997 175.824 238.851C185.131 232.807 192.806 225.591 202.572 219.548C211.986 213.898 222.777 212.98 233.454 213.324L234.274 212.775L100.769 204.525C103.91 206.346 106.427 208.978 107.674 212.34Z" fill="white" stroke="#1A1A1A" stroke-width="2" stroke-miterlimit="10" stroke-linecap="round" stroke-linejoin="round"/>
<path d="M197.331 182.049C197.175 181.393 197.036 180.909 196.945 180.311C196.954 180.368 196.97 180.425 196.986 180.483C197.109 180.999 197.224 181.524 197.331 182.049ZM198.052 186.346C197.946 185.608 197.823 184.804 197.692 183.919C197.839 184.73 197.962 185.542 198.052 186.346Z" fill="#EB485C"/>
<path d="M196.764 146.24C196.731 146.281 196.584 146.462 196.338 146.781C194.575 149.077 187.99 158.286 187.851 168.118C187.703 178.368 190.253 189.028 176.24 197.712C174.731 198.655 173.025 199.565 171.098 200.45C169.934 206.584 172.919 212.226 178.142 211.225C183.365 210.233 194.968 206.994 198.535 201.689C200.782 198.343 201.643 196.219 201.586 191.414L197.158 175.235M177.994 199.122C177.97 199.097 177.953 199.081 177.929 199.056C177.945 199.081 177.97 199.097 177.994 199.122ZM181.611 202.738C181.66 202.787 181.717 202.828 181.766 202.878C181.717 202.828 181.66 202.779 181.611 202.738ZM182.062 203.115C182.119 203.165 182.176 203.206 182.234 203.255C182.176 203.206 182.119 203.156 182.062 203.115ZM182.537 203.468C182.595 203.509 182.66 203.558 182.718 203.599C182.652 203.558 182.595 203.517 182.537 203.468ZM183.054 203.812C183.111 203.845 183.16 203.878 183.218 203.911C183.16 203.886 183.103 203.853 183.054 203.812Z" fill="#5067EF"/>
<path d="M196.764 146.24C196.731 146.281 196.584 146.462 196.338 146.781C194.575 149.077 187.99 158.286 187.851 168.118C187.703 178.368 190.253 189.028 176.24 197.712M176.24 197.712C176.395 197.818 176.551 197.925 176.707 198.04M176.24 197.712C174.731 198.655 173.025 199.565 171.098 200.45C169.934 206.584 172.919 212.226 178.142 211.225C183.365 210.233 194.968 206.994 198.535 201.689C200.782 198.343 201.643 196.219 201.586 191.414L197.158 175.235M178.38 199.491C178.372 199.483 178.363 199.475 178.355 199.466M177.584 198.745C177.56 198.72 177.535 198.704 177.511 198.679M180.758 201.943C180.774 201.959 180.791 201.976 180.807 201.992M181.176 202.345C181.217 202.386 181.258 202.418 181.299 202.459M177.994 199.122C177.97 199.097 177.953 199.081 177.929 199.056C177.945 199.081 177.97 199.097 177.994 199.122ZM181.611 202.738C181.66 202.787 181.717 202.828 181.766 202.878C181.717 202.828 181.66 202.779 181.611 202.738ZM182.062 203.115C182.119 203.165 182.176 203.206 182.234 203.255C182.176 203.206 182.119 203.156 182.062 203.115ZM182.537 203.468C182.595 203.509 182.66 203.558 182.718 203.599C182.652 203.558 182.595 203.517 182.537 203.468ZM183.054 203.812C183.111 203.845 183.16 203.878 183.218 203.911C183.16 203.886 183.103 203.853 183.054 203.812Z" stroke="#1A1A1A" stroke-width="2" stroke-miterlimit="10" stroke-linecap="round" stroke-linejoin="round"/>
<path d="M171.6 201.08C171.6 201.08 171.14 205.082 172.37 207.599C173.6 210.117 176.298 211.052 178.725 210.445C181.161 209.838 178.447 203.04 176.766 202.015C175.085 200.99 172.567 199.342 171.6 201.08Z" fill="#1A1A1A" stroke="#1A1A1A" stroke-width="2" stroke-miterlimit="10" stroke-linecap="round" stroke-linejoin="round"/>
<path d="M172.535 199.122C172.535 199.122 182.711 200.918 180.719 211.693C185.745 210.479 188.181 209.372 188.181 209.372C188.181 209.372 188.074 195.555 178.948 195.334C172.986 198.434 172.535 199.122 172.535 199.122Z" fill="white" stroke="#1A1A1A" stroke-width="2" stroke-miterlimit="10" stroke-linecap="round" stroke-linejoin="round"/>
<path d="M177.495 205.156C177.167 203.566 176.035 201.704 172.525 201.983C172.525 201.983 163.997 201.917 160.061 204.623C156.732 206.911 155.699 213.315 155.855 215.939C155.888 216.415 155.953 216.768 156.052 216.948C156.716 218.112 161.57 219.326 165.801 215.013C170.033 210.7 170.877 209.207 174.19 208.453C177.503 207.698 177.544 207.28 177.544 207.28C177.544 207.28 177.732 206.288 177.495 205.156Z" fill="white" stroke="#1A1A1A" stroke-width="2" stroke-miterlimit="10" stroke-linecap="round" stroke-linejoin="round"/>
<path d="M209.081 126.281C209.491 129.553 206.67 131.382 204.398 133.202C204.562 134.063 204.784 135.178 204.997 136.318C208.589 134.53 210.786 130.111 209.081 126.281Z" fill="#1A1A1A" stroke="#1A1A1A" stroke-width="2" stroke-miterlimit="10" stroke-linecap="round" stroke-linejoin="round"/>
<path d="M218.577 135.433C216.846 135.507 211.008 114.556 210.614 111.825C210.335 109.898 193.37 110.718 190.721 111.718C188.064 112.711 188.261 114.646 188.261 114.646C188.261 114.646 190.418 127.577 197.216 133.711C200.701 136.195 204.095 131.644 204.095 131.644C204.095 131.644 204.218 132.268 204.399 133.194C206.67 131.382 209.491 129.545 209.081 126.273C210.786 130.103 208.589 134.514 204.997 136.31C205.432 138.631 205.867 141.033 205.867 141.493C205.867 142.436 211.008 145.47 211.779 145.42C212.558 145.371 220.438 135.351 218.577 135.433Z" fill="white" stroke="#1A1A1A" stroke-width="2" stroke-miterlimit="10" stroke-linecap="round" stroke-linejoin="round"/>
<path d="M212.182 144.329C212.182 144.329 205.671 138.827 204.966 139.392C204.966 139.392 204.851 139.458 204.67 139.556C203.572 140.18 199.742 142.353 199.742 142.5C199.742 142.648 208.18 148.535 211.353 149.2C211.698 149.273 211.977 149.282 212.182 149.216C213.387 145.772 212.182 144.329 212.182 144.329Z" fill="white" stroke="#1A1A1A" stroke-width="2" stroke-miterlimit="10" stroke-linecap="round" stroke-linejoin="round"/>
<path d="M221.055 133.768C219.333 133.202 217.365 133.341 217.365 133.341C217.201 135.162 214.962 140.139 211.436 144.198C210.444 145.272 211.805 149.75 211.805 149.75C211.805 149.75 212.166 149.577 212.781 149.167C214.733 147.855 219.267 144.042 223.08 135.113C222.621 134.457 221.867 134.038 221.055 133.768Z" fill="white" stroke="#1A1A1A" stroke-width="2" stroke-miterlimit="10" stroke-linecap="round" stroke-linejoin="round"/>
<path d="M183.144 107.552C183.144 107.552 182.422 116.67 189.884 116.064C196.797 114.071 196.797 114.071 196.797 114.071C196.797 114.071 200.389 118.663 202.045 116.974C204.808 121.369 205.751 123.083 205.415 125.403C205.087 127.724 199.774 129.184 198.289 128.979C196.797 128.774 194.755 131.414 194.755 131.414C194.755 131.414 196.748 136.736 200.282 135.965C203.816 135.194 208.129 133.366 208.129 129.331C208.129 125.297 206.965 121.927 206.03 119.048C205.087 116.178 206.088 114.022 209.072 114.465C212.057 114.907 211.614 119.327 210.343 122.091C209.622 123.862 211.557 127.175 213.714 127.175C215.87 127.175 217.084 123.862 217.084 121.148C217.084 118.442 215.091 104.846 212.221 104.231C209.351 103.624 207.195 103.846 206.088 106.166C202.881 103.124 199.175 101.304 194.813 103.509C190.434 105.723 184.636 108.651 183.144 107.552Z" fill="#1A1A1A" stroke="#1A1A1A" stroke-width="2" stroke-miterlimit="10" stroke-linecap="round" stroke-linejoin="round"/>
<path d="M236.692 169.306C246.868 188.084 240.382 193.718 237.881 195.431C235.355 197.17 220.595 200.327 214.954 199.663C209.32 198.998 203.097 201.901 203.097 201.901C203.097 201.901 202.186 205.632 203.056 210.027C203.162 210.552 203.31 211.003 203.507 211.397C204.925 214.267 208.664 213.66 213.625 212.307C219.267 210.774 228.131 211.233 233.191 210.815C238.25 210.396 259.234 206.329 261.046 193.488C262.571 182.68 258.471 163.214 247.04 149.946C243.769 146.149 239.89 142.853 235.38 140.426" fill="#5067EF"/>
<path d="M236.692 169.306C246.868 188.084 240.382 193.718 237.881 195.431C235.355 197.17 220.595 200.327 214.954 199.663C209.32 198.998 203.097 201.901 203.097 201.901C203.097 201.901 202.186 205.632 203.056 210.027C203.162 210.552 203.31 211.003 203.507 211.397C204.925 214.267 208.664 213.66 213.625 212.307C219.267 210.774 228.131 211.233 233.191 210.815C238.25 210.396 259.234 206.329 261.046 193.488C262.571 182.68 258.471 163.214 247.04 149.946C243.769 146.149 239.89 142.853 235.38 140.426" stroke="#1A1A1A" stroke-width="2" stroke-miterlimit="10" stroke-linecap="round" stroke-linejoin="round"/>
<path d="M215.378 199.703C215.378 199.703 220.175 202.524 218.904 209.592C218.076 212.356 218.076 212.356 218.076 212.356L208.457 213.955C208.457 213.955 203.209 215.226 202.102 208.313C200.995 201.401 203.209 200.933 206.194 200.31C209.179 199.703 215.378 199.703 215.378 199.703Z" fill="white" stroke="#1A1A1A" stroke-width="2" stroke-miterlimit="10" stroke-linecap="round" stroke-linejoin="round"/>
<path d="M204.237 202.302C205.5 201.941 210.707 203.212 211.06 207.444C211.42 211.675 211.224 212.503 209.403 212.888C207.583 213.274 203.909 213.249 203.294 209.707C202.687 206.173 202.974 202.663 204.237 202.302Z" fill="#1A1A1A" stroke="#1A1A1A" stroke-width="2" stroke-miterlimit="10" stroke-linecap="round" stroke-linejoin="round"/>
<path d="M209.574 209.576C209.434 207.256 208.065 204.697 205.318 204.73C205.318 204.73 195.978 204.181 191.78 207.879C187.581 211.585 178.463 219.154 179.176 220.425C179.234 220.531 179.316 220.613 179.414 220.679C180.464 221.384 183.588 219.662 187.138 216.833C187.803 218.383 191.894 220.982 195.593 219.433C199.299 217.883 203.809 212.446 209.426 211.339C209.557 210.806 209.606 210.199 209.574 209.576Z" fill="white" stroke="#1A1A1A" stroke-width="2" stroke-miterlimit="10" stroke-linecap="round" stroke-linejoin="round"/>
<path d="M151.792 201.171L107.709 198.629L105.609 199.703L149.094 201.958L151.792 201.171Z" fill="#D9D9D9"/>
<path d="M154.859 216.727L189.176 221.647L170.857 235.685L149.332 227.879L154.859 216.727Z" fill="white" stroke="#1A1A1A" stroke-width="2" stroke-miterlimit="10" stroke-linecap="round" stroke-linejoin="round"/>
<path d="M157.457 219.932L181.827 223.302L170.634 231.592L153.66 228.55L157.457 219.932Z" fill="#1A1A1A" stroke="#1A1A1A" stroke-width="2" stroke-miterlimit="10" stroke-linecap="round" stroke-linejoin="round"/>
<path d="M158.254 222.295L177.631 225.362" stroke="white" stroke-width="2" stroke-miterlimit="10" stroke-linecap="round" stroke-linejoin="round"/>
<path d="M154.762 225.033L174.138 228.1" stroke="white" stroke-width="2" stroke-miterlimit="10" stroke-linecap="round" stroke-linejoin="round"/>
<path d="M177.631 223.664L168.66 229.921" stroke="white" stroke-width="2" stroke-miterlimit="10" stroke-linecap="round" stroke-linejoin="round"/>
<path d="M173.143 223.072L164.172 229.337" stroke="white" stroke-width="2" stroke-miterlimit="10" stroke-linecap="round" stroke-linejoin="round"/>
<path d="M168.658 222.49L159.695 228.747" stroke="white" stroke-width="2" stroke-miterlimit="10" stroke-linecap="round" stroke-linejoin="round"/>
<path d="M164.174 221.9L155.211 228.157" stroke="white" stroke-width="2" stroke-miterlimit="10" stroke-linecap="round" stroke-linejoin="round"/>
<path d="M171.601 238.555L127.83 235.242L125.895 232.979L170.855 235.685L171.601 238.555Z" fill="white" stroke="#1A1A1A" stroke-width="2" stroke-miterlimit="10" stroke-linecap="round" stroke-linejoin="round"/>
<path d="M105.609 199.703L149.094 201.958L168.175 237.177L124.289 233.635L105.609 199.703Z" fill="white" stroke="#1A1A1A" stroke-width="2" stroke-miterlimit="10" stroke-linecap="round" stroke-linejoin="round"/>
<path d="M133.311 220.655L134.131 215.932C134.245 215.276 135.057 215.038 135.508 215.53L139.903 220.368C140.379 220.884 139.994 221.721 139.297 221.704L134.081 221.59C133.589 221.581 133.22 221.139 133.311 220.655Z" fill="#1A1A1A" stroke="#1A1A1A" stroke-width="2" stroke-miterlimit="10" stroke-linecap="round" stroke-linejoin="round"/>
<path d="M151.792 201.17L170.857 235.684L168.175 237.176L149.094 201.957L151.792 201.17Z" fill="#1A1A1A" stroke="#1A1A1A" stroke-width="2" stroke-miterlimit="10" stroke-linecap="round" stroke-linejoin="round"/>
<path d="M189.453 224.631L189.174 221.646L170.855 235.685L171.602 238.555L189.453 224.631Z" fill="#1A1A1A" stroke="#1A1A1A" stroke-width="2" stroke-miterlimit="10" stroke-linecap="round" stroke-linejoin="round"/>
<path d="M158.373 128.65C157.832 128.421 157.012 128.749 156.47 129.036C156.52 124.624 154.904 119.22 146.721 119.286C145.868 119.294 145.089 119.36 144.384 119.483C144.392 119.712 144.384 119.934 144.343 120.155C144.162 121.295 143.514 122.295 142.883 123.255C141.653 125.132 138.865 127.953 137.496 129.913C137.512 130.167 137.528 130.421 137.553 130.676C136.7 130.2 134.913 129.503 134.56 131.791C134.175 134.292 137.299 135.071 138.422 135.268C138.553 135.743 138.652 136.014 138.652 136.014C138.652 136.014 139.168 137.523 140.226 139.22C141.727 141.631 144.318 144.452 148.041 143.927C154.396 143.041 155.618 134.628 155.618 134.628C155.618 134.628 155.683 134.415 155.782 134.029C156.036 133.972 156.388 133.898 156.848 133.808C159.496 133.045 159.25 129.027 158.373 128.65Z" fill="white" stroke="#1A1A1A" stroke-width="2" stroke-miterlimit="10" stroke-linecap="round" stroke-linejoin="round"/>
<path d="M145.058 117.482C145.058 117.482 143.983 119.45 144.951 121.648C145.927 123.845 153.307 125.895 153.307 125.895C153.307 125.895 153.684 126.223 154.693 126.969C155.701 127.716 156.021 130.061 156.021 130.061C156.021 130.061 157.71 125.969 157.71 125.387C157.71 124.805 150.625 115.981 145.058 117.482Z" fill="#1A1A1A" stroke="#1A1A1A" stroke-width="2" stroke-miterlimit="10" stroke-linecap="round" stroke-linejoin="round"/>
<path d="M142.876 118.908C142.876 118.908 144.787 118.367 144.91 121.434C145.033 124.5 140.966 125.714 139.604 127.969C138.276 130.224 138.998 132.094 138.998 132.094C138.998 132.094 137.407 131.421 136.989 129.224C136.57 127.034 142.876 118.908 142.876 118.908Z" fill="#1A1A1A" stroke="#1A1A1A" stroke-width="2" stroke-miterlimit="10" stroke-linecap="round" stroke-linejoin="round"/>
<path d="M289.149 122.082C294.548 122.082 298.924 117.706 298.924 112.308C298.924 106.909 294.548 102.533 289.149 102.533C283.751 102.533 279.375 106.909 279.375 112.308C279.375 117.706 283.751 122.082 289.149 122.082Z" fill="#1A1A1A" stroke="#1A1A1A" stroke-width="2" stroke-miterlimit="10" stroke-linecap="round" stroke-linejoin="round"/>
<path d="M46.8393 213.304C53.5737 206.57 53.5735 195.651 46.8389 188.917C40.1044 182.183 29.1857 182.183 22.4514 188.917C15.7171 195.652 15.7172 206.571 22.4518 213.305C29.1864 220.039 40.105 220.039 46.8393 213.304Z" fill="white" stroke="#1A1A1A" stroke-width="2" stroke-miterlimit="10" stroke-linecap="round" stroke-linejoin="round"/>
<path d="M269.037 288.972C271.019 286.99 271.019 283.776 269.037 281.793C267.055 279.811 263.841 279.811 261.859 281.794C259.876 283.776 259.876 286.99 261.859 288.972C263.841 290.954 267.055 290.954 269.037 288.972Z" fill="#1A1A1A" stroke="#1A1A1A" stroke-width="2" stroke-miterlimit="10" stroke-linecap="round" stroke-linejoin="round"/>
<path d="M299.874 243.098C305.798 243.098 310.6 238.296 310.6 232.372C310.6 226.449 305.798 221.646 299.874 221.646C293.95 221.646 289.148 226.449 289.148 232.372C289.148 238.296 293.95 243.098 299.874 243.098Z" fill="white" stroke="#1A1A1A" stroke-width="2" stroke-miterlimit="10" stroke-linecap="round" stroke-linejoin="round"/>
<path d="M92.7484 221.343C92.7484 222.384 87.6808 223.22 81.4406 223.22C75.1922 223.22 70.1328 222.376 70.1328 221.343C70.1328 220.301 75.2004 219.465 81.4406 219.465C87.6808 219.465 92.7484 220.301 92.7484 221.343Z" fill="#ADADAD"/>
<path d="M92.7484 220.645C92.7484 221.687 87.6808 222.523 81.4406 222.523C75.1922 222.523 70.1328 221.679 70.1328 220.645C70.1328 219.612 75.2004 218.768 81.4406 218.768C87.6808 218.768 92.7484 219.612 92.7484 220.645Z" fill="white"/>
<path d="M90.2589 220.646C90.2589 221.457 86.3147 222.113 81.4439 222.113C76.5731 222.113 72.6289 221.457 72.6289 220.646C72.6289 219.834 76.5731 219.178 81.4439 219.178C86.3065 219.186 90.2589 219.842 90.2589 220.646Z" fill="#1A1A1A" stroke="#1A1A1A" stroke-width="2" stroke-miterlimit="10" stroke-linecap="round" stroke-linejoin="round"/>
<path d="M88.3544 215.447C88.3544 218.284 84.9924 220.588 80.8432 220.588C76.694 220.588 73.332 218.284 73.332 215.447C73.332 214.881 73.4632 214.332 73.7174 213.815C73.742 213.766 73.7666 213.717 73.7912 213.668C73.7912 213.668 73.7994 213.668 73.7994 213.659C74.3242 213.151 77.2762 212.766 80.8432 212.766C84.4102 212.766 87.3622 213.151 87.887 213.659C87.887 213.659 87.887 213.659 87.8952 213.668C87.9198 213.717 87.9526 213.766 87.969 213.815C88.2232 214.332 88.3544 214.881 88.3544 215.447Z" fill="white" stroke="#1A1A1A" stroke-width="2" stroke-miterlimit="10" stroke-linecap="round" stroke-linejoin="round"/>
<path d="M87.9782 213.823C87.9782 214.406 84.7884 214.873 80.8524 214.873C76.9164 214.873 73.7266 214.406 73.7266 213.823V213.815C73.7266 213.766 73.7594 213.717 73.8004 213.668C73.8004 213.668 73.8086 213.668 73.8086 213.659C74.3334 213.151 77.2854 212.766 80.8524 212.766C84.4194 212.766 87.3714 213.151 87.8962 213.659C87.8962 213.659 87.8962 213.659 87.9044 213.668C87.9454 213.717 87.97 213.766 87.9782 213.823Z" fill="white" stroke="#1A1A1A" stroke-width="2" stroke-miterlimit="10" stroke-linecap="round" stroke-linejoin="round"/>
<path d="M86.8443 213.823C86.8443 214.175 84.1547 214.462 80.8419 214.462C77.5291 214.462 74.8477 214.175 74.8477 213.831V213.823C74.8477 213.79 74.8723 213.765 74.9133 213.733C75.3561 213.429 77.8407 213.191 80.8419 213.191C83.8431 213.191 86.3359 213.421 86.7705 213.733C86.8197 213.757 86.8443 213.79 86.8443 213.823Z" fill="#1A1A1A" stroke="#1A1A1A" stroke-width="2" stroke-miterlimit="10" stroke-linecap="round" stroke-linejoin="round"/>
<path d="M79.0807 213.822C79.0807 213.822 64.9029 206.745 70.8725 197.381C76.8421 188.017 62.2543 179.915 61.2539 180.063C68.2977 182.457 76.8257 188.172 73.4719 195.716C70.1263 203.269 75.1857 211.944 79.0807 213.822Z" fill="white" stroke="#1A1A1A" stroke-width="2" stroke-miterlimit="10" stroke-linecap="round" stroke-linejoin="round"/>
<path d="M81.4341 213.823C81.4341 213.823 72.7339 205.106 77.1045 189.969C81.4751 174.832 61.2539 170.248 61.2539 170.248C61.2539 170.248 81.8031 174.578 80.1959 186.435C78.5805 198.292 76.4157 206.722 81.4341 213.823ZM84.3041 213.823C84.3041 213.823 86.4115 208.501 83.6809 204.516C88.9453 208.698 84.3041 213.823 84.3041 213.823Z" fill="white" stroke="#1A1A1A" stroke-width="2" stroke-miterlimit="10" stroke-linecap="round" stroke-linejoin="round"/>
<path d="M283.959 67.7148H230.757C224.509 67.7148 219.441 72.7824 219.441 79.0308V83.9262C219.441 90.1746 224.501 95.234 230.749 95.2422L228.125 106.197C227.773 107.673 229.659 108.6 230.618 107.427L240.491 95.2422H283.967C290.216 95.2422 295.283 90.1746 295.283 83.9262V79.0308C295.275 72.7824 290.207 67.7148 283.959 67.7148Z" fill="white" stroke="#1A1A1A" stroke-width="2" stroke-miterlimit="10" stroke-linecap="round" stroke-linejoin="round"/>
<path d="M238.622 82.8691H234.973V91.0527H238.622V82.8691Z" fill="#8E9DF4" stroke="#1A1A1A" stroke-width="2" stroke-miterlimit="10" stroke-linecap="round" stroke-linejoin="round"/>
<path d="M248.903 78.4414H245.254V91.0448H248.903V78.4414Z" fill="#8E9DF4" stroke="#1A1A1A" stroke-width="2" stroke-miterlimit="10" stroke-linecap="round" stroke-linejoin="round"/>
<path d="M259.188 82.0898H255.539V91.0443H259.188V82.0898Z" fill="#8E9DF4" stroke="#1A1A1A" stroke-width="2" stroke-miterlimit="10" stroke-linecap="round" stroke-linejoin="round"/>
<path d="M269.462 79.5469H265.812V91.0433H269.462V79.5469Z" fill="#8E9DF4" stroke="#1A1A1A" stroke-width="2" stroke-miterlimit="10" stroke-linecap="round" stroke-linejoin="round"/>
<path d="M279.743 73.1348H276.094V91.0436H279.743V73.1348Z" fill="#8E9DF4" stroke="#1A1A1A" stroke-width="2" stroke-miterlimit="10" stroke-linecap="round" stroke-linejoin="round"/>
<path d="M256.997 74.4297V77.4145H255.004L257.702 80.0713L260.391 77.3735H258.366V74.4297H256.997Z" fill="#1A1A1A" stroke="#1A1A1A" stroke-width="2" stroke-miterlimit="10" stroke-linecap="round" stroke-linejoin="round"/>
<path d="M68.6328 126.084L88.3538 153.423" stroke="white" stroke-width="3" stroke-miterlimit="10" stroke-linecap="round" stroke-linejoin="round"/>
</svg>
